<?xml version="1.0" standalone="no"?>
<svg xmlns:xlink="http://www.w3.org/1999/xlink" id="wave" style="transform:rotate(0deg); transition: 0.3s" viewBox="0 0 1440 100" version="1.1" xmlns="http://www.w3.org/2000/svg"><defs><linearGradient id="sw-gradient-0" x1="0" x2="0" y1="1" y2="0"><stop stop-color="rgba(115, 142, 136, 1)" offset="0%"/><stop stop-color="rgba(115, 142, 136, 1)" offset="100%"/></linearGradient></defs><path style="transform:translate(0, 0px); opacity:1" fill="url(#sw-gradient-0)" d="M0,0L60,13.3C120,27,240,53,360,63.3C480,73,600,67,720,53.3C840,40,960,20,1080,11.7C1200,3,1320,7,1440,21.7C1560,37,1680,63,1800,68.3C1920,73,2040,57,2160,51.7C2280,47,2400,53,2520,48.3C2640,43,2760,27,2880,26.7C3000,27,3120,43,3240,41.7C3360,40,3480,20,3600,10C3720,0,3840,0,3960,15C4080,30,4200,60,4320,60C4440,60,4560,30,4680,26.7C4800,23,4920,47,5040,46.7C5160,47,5280,23,5400,20C5520,17,5640,33,5760,36.7C5880,40,6000,30,6120,26.7C6240,23,6360,27,6480,28.3C6600,30,6720,30,6840,28.3C6960,27,7080,23,7200,31.7C7320,40,7440,60,7560,66.7C7680,73,7800,67,7920,60C8040,53,8160,47,8280,40C8400,33,8520,27,8580,23.3L8640,20L8640,100L8580,100C8520,100,8400,100,8280,100C8160,100,8040,100,7920,100C7800,100,7680,100,7560,100C7440,100,7320,100,7200,100C7080,100,6960,100,6840,100C6720,100,6600,100,6480,100C6360,100,6240,100,6120,100C6000,100,5880,100,5760,100C5640,100,5520,100,5400,100C5280,100,5160,100,5040,100C4920,100,4800,100,4680,100C4560,100,4440,100,4320,100C4200,100,4080,100,3960,100C3840,100,3720,100,3600,100C3480,100,3360,100,3240,100C3120,100,3000,100,2880,100C2760,100,2640,100,2520,100C2400,100,2280,100,2160,100C2040,100,1920,100,1800,100C1680,100,1560,100,1440,100C1320,100,1200,100,1080,100C960,100,840,100,720,100C600,100,480,100,360,100C240,100,120,100,60,100L0,100Z"/></svg>