<?xml version="1.0" standalone="no"?>
<svg xmlns:xlink="http://www.w3.org/1999/xlink" id="wave" style="transform:rotate(0deg); transition: 0.3s" viewBox="0 0 1440 490" version="1.1" xmlns="http://www.w3.org/2000/svg"><defs><linearGradient id="sw-gradient-0" x1="0" x2="0" y1="1" y2="0"><stop stop-color="rgba(243, 106, 62, 1)" offset="0%"/><stop stop-color="rgba(255, 179, 11, 1)" offset="100%"/></linearGradient></defs><path style="transform:translate(0, 0px); opacity:1" fill="url(#sw-gradient-0)" d="M0,98L26.7,81.7C53.3,65,107,33,160,49C213.3,65,267,131,320,147C373.3,163,427,131,480,155.2C533.3,180,587,261,640,310.3C693.3,359,747,376,800,392C853.3,408,907,425,960,416.5C1013.3,408,1067,376,1120,351.2C1173.3,327,1227,310,1280,277.7C1333.3,245,1387,196,1440,163.3C1493.3,131,1547,114,1600,114.3C1653.3,114,1707,131,1760,163.3C1813.3,196,1867,245,1920,294C1973.3,343,2027,392,2080,375.7C2133.3,359,2187,278,2240,277.7C2293.3,278,2347,359,2400,343C2453.3,327,2507,212,2560,204.2C2613.3,196,2667,294,2720,334.8C2773.3,376,2827,359,2880,318.5C2933.3,278,2987,212,3040,163.3C3093.3,114,3147,82,3200,98C3253.3,114,3307,180,3360,245C3413.3,310,3467,376,3520,334.8C3573.3,294,3627,147,3680,73.5C3733.3,0,3787,0,3813,0L3840,0L3840,490L3813.3,490C3786.7,490,3733,490,3680,490C3626.7,490,3573,490,3520,490C3466.7,490,3413,490,3360,490C3306.7,490,3253,490,3200,490C3146.7,490,3093,490,3040,490C2986.7,490,2933,490,2880,490C2826.7,490,2773,490,2720,490C2666.7,490,2613,490,2560,490C2506.7,490,2453,490,2400,490C2346.7,490,2293,490,2240,490C2186.7,490,2133,490,2080,490C2026.7,490,1973,490,1920,490C1866.7,490,1813,490,1760,490C1706.7,490,1653,490,1600,490C1546.7,490,1493,490,1440,490C1386.7,490,1333,490,1280,490C1226.7,490,1173,490,1120,490C1066.7,490,1013,490,960,490C906.7,490,853,490,800,490C746.7,490,693,490,640,490C586.7,490,533,490,480,490C426.7,490,373,490,320,490C266.7,490,213,490,160,490C106.7,490,53,490,27,490L0,490Z"/></svg>