<?xml version="1.0" standalone="no"?>
<svg xmlns:xlink="http://www.w3.org/1999/xlink" id="wave" style="transform:rotate(180deg); transition: 0.3s" viewBox="0 0 1440 100" version="1.1" xmlns="http://www.w3.org/2000/svg"><defs><linearGradient id="sw-gradient-0" x1="0" x2="0" y1="1" y2="0"><stop stop-color="rgba(243, 106, 62, 1)" offset="0%"/><stop stop-color="rgba(255, 179, 11, 1)" offset="100%"/></linearGradient></defs><path style="transform:translate(0, 0px); opacity:1" fill="url(#sw-gradient-0)" d="M0,50L60,56.7C120,63,240,77,360,68.3C480,60,600,30,720,16.7C840,3,960,7,1080,16.7C1200,27,1320,43,1440,46.7C1560,50,1680,40,1800,45C1920,50,2040,70,2160,80C2280,90,2400,90,2520,76.7C2640,63,2760,37,2880,33.3C3000,30,3120,50,3240,63.3C3360,77,3480,83,3600,78.3C3720,73,3840,57,3960,41.7C4080,27,4200,13,4320,16.7C4440,20,4560,40,4680,46.7C4800,53,4920,47,5040,45C5160,43,5280,47,5400,41.7C5520,37,5640,23,5760,16.7C5880,10,6000,10,6120,15C6240,20,6360,30,6480,40C6600,50,6720,60,6840,53.3C6960,47,7080,23,7200,23.3C7320,23,7440,47,7560,56.7C7680,67,7800,63,7920,56.7C8040,50,8160,40,8280,41.7C8400,43,8520,57,8580,63.3L8640,70L8640,100L8580,100C8520,100,8400,100,8280,100C8160,100,8040,100,7920,100C7800,100,7680,100,7560,100C7440,100,7320,100,7200,100C7080,100,6960,100,6840,100C6720,100,6600,100,6480,100C6360,100,6240,100,6120,100C6000,100,5880,100,5760,100C5640,100,5520,100,5400,100C5280,100,5160,100,5040,100C4920,100,4800,100,4680,100C4560,100,4440,100,4320,100C4200,100,4080,100,3960,100C3840,100,3720,100,3600,100C3480,100,3360,100,3240,100C3120,100,3000,100,2880,100C2760,100,2640,100,2520,100C2400,100,2280,100,2160,100C2040,100,1920,100,1800,100C1680,100,1560,100,1440,100C1320,100,1200,100,1080,100C960,100,840,100,720,100C600,100,480,100,360,100C240,100,120,100,60,100L0,100Z"/></svg>