<svg id="visual" viewBox="0 0 1200 1000" width="1200" height="1000" xmlns="http://www.w3.org/2000/svg" xmlns:xlink="http://www.w3.org/1999/xlink" version="1.1"><rect width="1200" height="1000" fill="#16423C"></rect><g><g transform="translate(639 170)"><path d="M128.4 -37.6C149.3 22.5 137.3 97.5 92.8 130.4C48.4 163.2 -28.4 154.1 -81.5 114.9C-134.5 75.7 -163.8 6.5 -146.2 -49.1C-128.7 -104.6 -64.3 -146.5 -5.3 -144.8C53.7 -143 107.5 -97.7 128.4 -37.6Z" stroke="#F7770F" fill="none" stroke-width="20"></path></g><g transform="translate(175 348)"><path d="M101 -30.3C115.2 11 100.3 64.3 64.5 90.7C28.7 117.2 -28 116.9 -64.9 89.9C-101.9 63 -119 9.4 -104.9 -31.8C-90.8 -72.9 -45.4 -101.6 -1 -101.3C43.4 -101 86.7 -71.6 101 -30.3Z" stroke="#F7770F" fill="none" stroke-width="20"></path></g><g transform="translate(360 841)"><path d="M94.6 -31.2C108 10.5 94.2 60.6 60.6 85.5C27 110.4 -26.5 110.2 -61.8 84.6C-97.1 59.1 -114.2 8.2 -100.9 -33.4C-87.6 -74.9 -43.8 -107.1 -1.6 -106.6C40.6 -106.1 81.2 -72.8 94.6 -31.2Z" stroke="#F7770F" fill="none" stroke-width="20"></path></g><g transform="translate(902 958)"><path d="M108.9 -39C123.7 10.1 106.2 66.1 66.1 96.5C25.9 127 -36.8 132 -73.8 104.4C-110.9 76.8 -122.2 16.7 -105.6 -34.9C-89.1 -86.5 -44.5 -129.6 1.3 -130C47.1 -130.4 94.1 -88.2 108.9 -39Z" stroke="#F7770F" fill="none" stroke-width="20"></path></g><g transform="translate(1179 41)"><path d="M114.2 -37.2C128.7 7.6 108 63.8 69.2 91C30.4 118.1 -26.3 116.2 -61.9 89.4C-97.6 62.5 -112 10.7 -98.2 -33.1C-84.3 -77 -42.2 -112.9 3.8 -114.2C49.8 -115.4 99.7 -82 114.2 -37.2Z" stroke="#F7770F" fill="none" stroke-width="20"></path></g><g transform="translate(1112 503)"><path d="M87 -26.5C97.5 4.2 80.4 45.6 51.4 65.4C22.5 85.1 -18.3 83.2 -44.4 63.6C-70.5 44.1 -81.9 6.9 -72 -22.8C-62.2 -52.6 -31.1 -74.8 3.6 -76C38.2 -77.1 76.4 -57.2 87 -26.5Z" stroke="#F7770F" fill="none" stroke-width="20"></path></g></g></svg>